<?xml version="1.0" encoding="utf-8"?>
<!-- Generator: Adobe Illustrator 26.0.1, SVG Export Plug-In . SVG Version: 6.00 Build 0)  -->
<svg version="1.1" id="Layer_1" xmlns="http://www.w3.org/2000/svg" xmlns:xlink="http://www.w3.org/1999/xlink" x="0px" y="0px"
	 viewBox="0 0 2800 2100" style="enable-background:new 0 0 2800 2100;" xml:space="preserve">
<style type="text/css">
	.st0{fill:#FFFFFF;}
	.st1{fill:url(#SVGID_1_);}
	.st2{fill:url(#SVGID_00000127039247368987815310000013001795490303717504_);}
	.st3{fill:url(#SVGID_00000061432257186582124110000010396895148423814315_);}
	.st4{fill:url(#SVGID_00000045585739317040119240000003336008663474332575_);}
	.st5{fill:url(#SVGID_00000110466956061710957180000009779971399700605363_);}
	.st6{fill:url(#SVGID_00000143595109295263690950000011514382709439135158_);}
	.st7{fill:url(#SVGID_00000026871839102631559970000017280791449051463615_);}
	.st8{fill:url(#SVGID_00000172403703341817722930000006340021250294095531_);}
	.st9{fill:url(#SVGID_00000106130305706820334730000006462226289149803173_);}
	.st10{fill:url(#SVGID_00000017488441944423124370000005370447345152447903_);}
	.st11{fill:url(#SVGID_00000017480366276409075000000007973825710324990395_);}
</style>
<g>
	<path class="st0" d="M668.29,1097.75l15.02-29.11c13.86,8.06,34.95,13.52,54.01,13.52c20.8,0,28.6-4.94,28.6-12.74
		c0-22.88-93.87,0.52-93.87-55.37c0-26.51,26.57-45.23,71.92-45.23c21.37,0,45.06,4.42,59.79,12.22l-15.02,28.85
		c-15.31-7.8-30.62-10.4-44.77-10.4c-20.22,0-28.88,5.72-28.88,13c0,23.92,93.87,0.78,93.87,55.89c0,25.99-26.86,44.45-73.36,44.45
		C709.3,1112.83,682.73,1106.33,668.29,1097.75z"/>
	<path class="st0" d="M988.6,970.89v139.85h-43.04v-16.12c-11.26,12.22-27.73,18.2-48.52,18.2c-43.9,0-77.7-28.07-77.7-72.01
		c0-43.93,33.79-72.01,77.7-72.01c19.06,0,35.24,5.46,46.5,16.9v-14.82H988.6z M944.41,1040.82c0-24.18-17.33-38.73-39.57-38.73
		c-22.53,0-39.86,14.56-39.86,38.73c0,24.18,17.33,38.73,39.86,38.73C927.08,1079.55,944.41,1065,944.41,1040.82z"/>
	<path class="st0" d="M1286.96,1030.68v80.06h-45.06v-73.83c0-22.62-11.26-33.01-29.46-33.01c-20.22,0-34.37,11.7-34.37,36.65v70.19
		h-45.06v-73.83c0-22.62-10.69-33.01-29.46-33.01c-19.93,0-34.08,11.7-34.08,36.65v70.19h-45.06V970.89h43.04v16.12
		c11.55-11.96,28.88-18.2,48.81-18.2c21.66,0,40.15,7.54,51.12,22.88c12.42-14.3,32.64-22.88,56.03-22.88
		C1260.39,968.81,1286.96,988.05,1286.96,1030.68z"/>
	<path class="st0" d="M1481.05,970.89v139.85h-43.04v-16.12c-11.26,12.22-27.73,18.2-48.52,18.2c-43.9,0-77.7-28.07-77.7-72.01
		c0-43.93,33.79-72.01,77.7-72.01c19.06,0,35.24,5.46,46.5,16.9v-14.82H1481.05z M1436.86,1040.82c0-24.18-17.33-38.73-39.57-38.73
		c-22.53,0-39.86,14.56-39.86,38.73c0,24.18,17.33,38.73,39.86,38.73C1419.53,1079.55,1436.86,1065,1436.86,1040.82z"/>
	<path class="st0" d="M1613.33,968.81v37.43c-3.76-0.26-6.64-0.52-10.11-0.52c-24.84,0-41.3,12.22-41.3,38.99v66.03h-45.06V970.89
		h43.04v18.46C1570.87,975.83,1589.36,968.81,1613.33,968.81z"/>
	<path class="st0" d="M1790.68,970.89v139.85h-43.04v-16.12c-11.27,12.22-27.73,18.2-48.53,18.2c-43.9,0-77.7-28.07-77.7-72.01
		c0-43.93,33.79-72.01,77.7-72.01c19.06,0,35.24,5.46,46.5,16.9v-14.82H1790.68z M1746.49,1040.82c0-24.18-17.33-38.73-39.57-38.73
		c-22.53,0-39.86,14.56-39.86,38.73c0,24.18,17.33,38.73,39.86,38.73C1729.16,1079.55,1746.49,1065,1746.49,1040.82z"/>
	<path class="st0" d="M2148.25,970.89v77.2c0,41.07-25.71,64.73-72.21,64.73c-21.37,0-38.99-5.2-51.13-19.76
		c-11.84,14.04-28.88,19.76-51.41,19.76c-46.79,0-71.92-23.66-71.92-64.73v-77.2h45.06v74.09c0,23.14,8.38,33.79,27.44,33.79
		c19.06,0,28.31-10.66,28.31-33.79v-74.09h45.06v74.09c0,23.14,9.24,33.79,28.31,33.79c19.06,0,27.44-10.66,27.44-33.79v-74.09
		H2148.25z"/>
	<path class="st0" d="M2300.17,1066.82l23.97,23.4c-14.44,14.82-36.1,22.62-64.12,22.62c-53.72,0-88.67-30.41-88.67-72.01
		c0-41.85,35.24-72.01,83.19-72.01c43.9,0,80.01,25.99,80.3,70.71l-114.96,20.02c6.64,13.78,21.08,20.8,41.3,20.8
		C2277.64,1080.33,2289.48,1075.91,2300.17,1066.82z M2215.54,1036.66l75.68-13.26c-4.33-14.3-17.91-23.92-36.68-23.92
		C2232,999.49,2216.41,1013.01,2215.54,1036.66z"/>
	<path class="st0" d="M2359.38,1064.48V917.86h45.06v144.27c0,11.96,6.93,18.46,19.35,18.46c4.91,0,10.11-1.3,12.71-2.6l2.02,31.45
		c-7.8,2.34-15.6,3.38-23.4,3.38C2380.17,1112.83,2359.38,1095.67,2359.38,1064.48z"/>
	<path class="st0" d="M2454.98,1064.48V917.86h45.06v144.27c0,11.96,6.93,18.46,19.35,18.46c4.91,0,10.11-1.3,12.71-2.6l2.02,31.45
		c-7.8,2.34-15.6,3.38-23.4,3.38C2475.78,1112.83,2454.98,1095.67,2454.98,1064.48z"/>
</g>
<g>
	<linearGradient id="SVGID_1_" gradientUnits="userSpaceOnUse" x1="320.9461" y1="1071.095" x2="491.0361" y2="827.7065">
		<stop  offset="0" style="stop-color:#2167D9"/>
		<stop  offset="1" style="stop-color:#53C9E7"/>
	</linearGradient>
	<path class="st1" d="M282.5,919.66c57.58-117.07,200.89-129.89,309.32-15.21C479.87,744.91,307.21,816.34,282.5,919.66z
		 M283.67,958.27c45.44-126.58,163.83-141.2,278.51-56.95C455.1,778.26,297.54,847.32,283.67,958.27z M291.27,994.75
		c15.68-110.34,138.96-161.78,246.33-94.2C415.02,807.81,287.16,889.5,291.27,994.75z M303.19,1030.07
		c-8.17-99.17,99.54-173.7,213.93-125.43C397.76,836.18,280.82,927.63,303.19,1030.07z M316.73,1051.21
		c-12.31-106.2,83.67-160.9,179.63-139.84C382.56,867.18,289.27,957.69,316.73,1051.21z M334.57,1076.66
		c-25.72-87.25,45.02-163.86,144.81-155.93C356.02,900.35,298.29,997.09,334.57,1076.66z M355.34,1097.43
		c-36.72-75.1,9.35-153.55,106.15-164.08C350.37,929.8,308.34,1027.94,355.34,1097.43z M376.6,1111.08
		c-47.04-67.83-11.95-139.46,74.7-166.36C353.88,958.47,321.57,1052.51,376.6,1111.08z M398.93,1120.54
		c-51.12-45.86-38.11-118.03,42.71-163.24C350.95,988.11,341.49,1078.74,398.93,1120.54z M436.45,971.27
		c-75.26,37.23-79.2,120.47-15.29,157.47C360.77,1079.21,376.06,1016.34,436.45,971.27z"/>
	
		<linearGradient id="SVGID_00000155120503273202233590000011593191353782523041_" gradientUnits="userSpaceOnUse" x1="478.2414" y1="1113.2722" x2="361.4582" y2="1279.2712">
		<stop  offset="0" style="stop-color:#FF807A"/>
		<stop  offset="1" style="stop-color:#9A34B3"/>
	</linearGradient>
	<path style="fill:url(#SVGID_00000155120503273202233590000011593191353782523041_);" d="M265.88,1195.56
		c111.95,159.54,284.61,88.11,309.32-15.21C517.62,1297.41,374.32,1310.24,265.88,1195.56z"/>
	
		<linearGradient id="SVGID_00000004515801485819553400000004649580690480418690_" gradientUnits="userSpaceOnUse" x1="499.8971" y1="1090.7535" x2="379.0601" y2="1262.5146">
		<stop  offset="0" style="stop-color:#FF807A"/>
		<stop  offset="1" style="stop-color:#9A34B3"/>
	</linearGradient>
	<path style="fill:url(#SVGID_00000004515801485819553400000004649580690480418690_);" d="M574.03,1141.73
		c-45.44,126.58-163.83,141.2-278.51,56.95C402.6,1321.74,560.16,1252.68,574.03,1141.73z"/>
	
		<linearGradient id="SVGID_00000100362177714840163370000003309749551224329143_" gradientUnits="userSpaceOnUse" x1="516.1462" y1="1071.0962" x2="392.1049" y2="1247.412">
		<stop  offset="0" style="stop-color:#FF807A"/>
		<stop  offset="1" style="stop-color:#9A34B3"/>
	</linearGradient>
	<path style="fill:url(#SVGID_00000100362177714840163370000003309749551224329143_);" d="M566.43,1105.25
		c-15.68,110.34-138.96,161.78-246.33,94.2C442.68,1292.19,570.54,1210.5,566.43,1105.25z"/>
	
		<linearGradient id="SVGID_00000062170851438645186460000004592436395955601335_" gradientUnits="userSpaceOnUse" x1="527.4698" y1="1052.162" x2="399.6029" y2="1233.9158">
		<stop  offset="0" style="stop-color:#FF807A"/>
		<stop  offset="1" style="stop-color:#9A34B3"/>
	</linearGradient>
	<path style="fill:url(#SVGID_00000062170851438645186460000004592436395955601335_);" d="M554.51,1069.93
		c8.17,99.17-99.54,173.7-213.93,125.43C459.94,1263.82,576.88,1172.37,554.51,1069.93z"/>
	
		<linearGradient id="SVGID_00000102502462846992152640000006832440632578425747_" gradientUnits="userSpaceOnUse" x1="531.1243" y1="1043.0703" x2="407.763" y2="1218.4197">
		<stop  offset="0" style="stop-color:#FF807A"/>
		<stop  offset="1" style="stop-color:#9A34B3"/>
	</linearGradient>
	<path style="fill:url(#SVGID_00000102502462846992152640000006832440632578425747_);" d="M540.97,1048.79
		c12.31,106.2-83.67,160.9-179.63,139.84C475.14,1232.82,568.42,1142.31,540.97,1048.79z"/>
	
		<linearGradient id="SVGID_00000062903371432431893750000009552156917496822690_" gradientUnits="userSpaceOnUse" x1="533.8878" y1="1032.0792" x2="414.4198" y2="1201.8944">
		<stop  offset="0" style="stop-color:#FF807A"/>
		<stop  offset="1" style="stop-color:#9A34B3"/>
	</linearGradient>
	<path style="fill:url(#SVGID_00000062903371432431893750000009552156917496822690_);" d="M523.13,1023.34
		c25.72,87.25-45.02,163.86-144.81,155.93C501.68,1199.65,559.4,1102.91,523.13,1023.34z"/>
	
		<linearGradient id="SVGID_00000027600166776251092680000012886782342398110081_" gradientUnits="userSpaceOnUse" x1="529.8728" y1="1023.0098" x2="419.2329" y2="1180.2765">
		<stop  offset="0" style="stop-color:#FF807A"/>
		<stop  offset="1" style="stop-color:#9A34B3"/>
	</linearGradient>
	<path style="fill:url(#SVGID_00000027600166776251092680000012886782342398110081_);" d="M502.36,1002.57
		c36.72,75.1-9.35,153.55-106.15,164.08C507.33,1170.2,549.36,1072.06,502.36,1002.57z"/>
	
		<linearGradient id="SVGID_00000123402410049541387400000008834332481716323509_" gradientUnits="userSpaceOnUse" x1="511.756" y1="1011.4778" x2="410.3108" y2="1155.6748">
		<stop  offset="0" style="stop-color:#FF807A"/>
		<stop  offset="1" style="stop-color:#9A34B3"/>
	</linearGradient>
	<path style="fill:url(#SVGID_00000123402410049541387400000008834332481716323509_);" d="M481.1,988.92
		c47.04,67.83,11.95,139.46-74.7,166.36C503.82,1141.53,536.13,1047.49,481.1,988.92z"/>
	
		<linearGradient id="SVGID_00000094619946674803575700000001811440690443138485_" gradientUnits="userSpaceOnUse" x1="492.9647" y1="1004.3929" x2="403.3931" y2="1131.7124">
		<stop  offset="0" style="stop-color:#FF807A"/>
		<stop  offset="1" style="stop-color:#9A34B3"/>
	</linearGradient>
	<path style="fill:url(#SVGID_00000094619946674803575700000001811440690443138485_);" d="M458.77,979.46
		c51.12,45.86,38.11,118.03-42.71,163.24C506.75,1111.89,516.21,1021.26,458.77,979.46z"/>
	
		<linearGradient id="SVGID_00000109021946300145617070000006062187560379470271_" gradientUnits="userSpaceOnUse" x1="474.5233" y1="998.2448" x2="396.3306" y2="1109.3903">
		<stop  offset="0" style="stop-color:#FF807A"/>
		<stop  offset="1" style="stop-color:#9A34B3"/>
	</linearGradient>
	<path style="fill:url(#SVGID_00000109021946300145617070000006062187560379470271_);" d="M421.24,1128.73
		c75.26-37.23,79.2-120.47,15.29-157.47C496.93,1020.79,481.64,1083.66,421.24,1128.73z"/>
</g>
</svg>
